<svg width="1920" height="1080" viewBox="0 0 1920 1080" fill="none" xmlns="http://www.w3.org/2000/svg">
<g clip-path="url(#clip0_2_199)">
<path fill-rule="evenodd" clip-rule="evenodd" d="M-45.5632 -84.0511C-40.5774 -76.8912 -32.4044 -72.6231 -23.6797 -72.6231L526.835 -72.6231C532.075 -72.6231 536.982 -70.0576 539.973 -65.7552L843.326 370.662C855.617 388.344 842.964 412.549 821.43 412.549L276.066 412.549C267.285 412.549 259.066 416.872 254.091 424.109L-128.409 980.492C-134.639 989.554 -134.668 1001.51 -128.48 1010.6L254.1 1572.72C259.066 1580.02 267.32 1584.39 276.146 1584.39L995.929 1584.39C1017.26 1584.39 1029.96 1560.58 1018.08 1542.87L661.042 1010.45C654.991 1001.43 655.019 989.637 661.111 980.643L993.17 490.423C998.131 483.099 1006.4 478.712 1015.25 478.712L1774.16 478.712C1795.7 478.712 1808.35 454.507 1796.06 436.825L1379.76 -162.082C1374.78 -169.253 1366.6 -173.529 1357.86 -173.529L621.238 -173.529C616.003 -173.529 611.099 -176.09 608.107 -180.386L330.729 -578.715C325.744 -585.875 317.571 -590.143 308.846 -590.143L-346.918 -590.143C-368.461 -590.143 -381.112 -565.918 -368.801 -548.238L-45.5632 -84.0511Z" fill="#3A85DD"/>
<path d="M1194.99 1155.61L1500.45 717.763C1505.21 711.005 1512.97 707.143 1521.24 707.143L2132.16 707.143C2141.43 707.143 2149.95 711.97 2154.21 719.935C2158.47 727.901 2157.97 737.314 2152.95 744.797L1857.02 1169.13L2135.16 1567.63C2141.68 1577.04 2152.7 1582.84 2164.73 1582.84L2743.07 1582.84C2752.34 1582.84 2760.86 1587.66 2765.12 1595.63C2769.38 1603.59 2768.88 1613.01 2763.87 1620.49L2458.41 2058.09C2453.65 2064.85 2445.88 2068.71 2437.61 2068.71L1826.7 2068.71C1817.43 2068.71 1808.91 2063.89 1804.65 2055.92C1800.39 2047.96 1800.89 2038.54 1805.9 2031.06L2047.96 1684.21C2063.75 1661.52 2046.96 1630.87 2018.39 1630.87L1521.24 1630.87C1512.97 1630.87 1505.21 1626.76 1500.45 1620.25L1194.99 1182.64C1189.23 1174.44 1189.23 1163.82 1194.99 1155.61Z" fill="#3A85DD"/>
</g>
<defs>
<clipPath id="clip0_2_199">
<rect width="1920" height="1080" fill="white"/>
</clipPath>
</defs>
</svg>
