<svg width="1920" height="1080" viewBox="0 0 1920 1080" fill="none" xmlns="http://www.w3.org/2000/svg">
<g clip-path="url(#clip0_1_554)">
<path fill-rule="evenodd" clip-rule="evenodd" d="M-468.219 317.186C-463.233 324.346 -455.061 328.614 -446.336 328.614H168.824C174.064 328.614 178.971 331.179 181.962 335.482L533.915 841.817C546.206 859.499 533.553 883.704 512.019 883.704H-112.773C-121.555 883.704 -129.773 888.027 -134.748 895.264L-562.479 1517.44C-568.709 1526.5 -568.737 1538.46 -562.55 1547.55L-134.739 2176.13C-129.773 2183.42 -121.519 2187.79 -112.694 2187.79H695.555C716.887 2187.79 729.584 2163.99 717.703 2146.27L316.103 1547.4C310.052 1538.38 310.08 1526.58 316.172 1517.59L698.01 953.88C702.972 946.556 711.242 942.169 720.089 942.169H1561.73C1583.27 942.169 1595.92 917.964 1583.63 900.282L1116.16 227.766C1111.18 220.595 1103 216.319 1094.27 216.319H271.992C266.757 216.319 261.853 213.758 258.862 209.462L-51.2559 -235.883C-56.2417 -243.043 -64.4147 -247.311 -73.1395 -247.311H-810.244C-831.788 -247.311 -844.439 -223.086 -832.128 -205.406L-468.219 317.186Z" fill="#A8794E"/>
<path d="M1396.74 -65.0526L1731.63 -545.071C1736.85 -552.48 1745.37 -556.714 1754.43 -556.714L2424.22 -556.714C2434.38 -556.714 2443.72 -551.422 2448.39 -542.69C2453.06 -533.957 2452.51 -523.637 2447.02 -515.434L2122.57 -50.2341L2427.51 386.651C2434.65 396.972 2446.74 403.322 2459.93 403.322L3094 403.322C3104.16 403.322 3113.5 408.615 3118.17 417.347C3122.84 426.08 3122.29 436.4 3116.8 444.603L2781.91 924.357C2776.69 931.766 2768.17 936 2759.11 936L2089.32 936C2079.16 936 2069.82 930.708 2065.15 921.975C2060.48 913.243 2061.03 902.923 2066.52 894.719L2331.91 514.462C2349.21 489.588 2330.81 455.982 2299.49 455.982L1754.43 455.982C1745.37 455.982 1736.85 451.483 1731.63 444.338L1396.74 -35.4153C1390.42 -44.4123 1390.42 -56.0556 1396.74 -65.0526Z" fill="#A8794E"/>
</g>
<defs>
<clipPath id="clip0_1_554">
<rect width="1920" height="1080" fill="white"/>
</clipPath>
</defs>
</svg>
