<svg width="1920" height="1080" viewBox="0 0 1920 1080" fill="none" xmlns="http://www.w3.org/2000/svg">
<g clip-path="url(#clip0_1_302)">
<path fill-rule="evenodd" clip-rule="evenodd" d="M2355.04 783.343C2350.05 776.184 2341.88 771.916 2333.15 771.916H1756.12C1750.88 771.916 1745.97 769.35 1742.98 765.048L1441.94 331.947C1429.65 314.265 1442.3 290.06 1463.83 290.06H2019.54C2028.32 290.06 2036.54 285.737 2041.51 278.501L2442.57 -304.87C2448.8 -313.932 2448.82 -325.889 2442.64 -334.981L2041.5 -924.361C2036.54 -931.657 2028.28 -936.023 2019.46 -936.023H1263.39C1242.06 -936.023 1229.36 -912.221 1241.24 -894.504L1616.55 -334.828C1622.6 -325.806 1622.58 -314.015 1616.49 -305.021L1285.68 183.349C1280.72 190.673 1272.45 195.06 1263.6 195.06H449.08C427.546 195.06 414.893 219.265 427.184 236.947L864.471 866.047C869.455 873.218 877.634 877.494 886.367 877.494H1658.13C1663.36 877.494 1668.26 880.055 1671.26 884.351L1962.06 1301.96C1967.05 1309.12 1975.22 1313.39 1983.95 1313.39H2673.07C2694.62 1313.39 2707.27 1289.17 2694.96 1271.49L2355.04 783.343Z" fill="#58AE39"/>
<path d="M480.47 1087.83L231.045 1445.47C227.157 1450.99 220.814 1454.14 214.062 1454.14L-284.79 1454.14C-292.36 1454.14 -299.317 1450.2 -302.796 1443.69C-306.274 1437.19 -305.865 1429.5 -301.773 1423.39L-60.1223 1076.79L-287.245 751.291C-292.565 743.602 -301.568 738.87 -311.39 738.87L-783.641 738.87C-791.212 738.87 -798.169 734.927 -801.647 728.421C-805.126 721.915 -804.716 714.226 -800.624 708.114L-551.198 350.675C-547.311 345.155 -540.968 342 -534.215 342L-35.3641 342C-27.7933 342 -20.8363 345.943 -17.3579 352.449C-13.8794 358.955 -14.2887 366.645 -18.381 372.756L-216.039 656.066C-228.93 674.598 -215.221 699.637 -191.894 699.637L214.062 699.637C220.814 699.637 227.157 702.988 231.045 708.311L480.47 1065.75C485.177 1072.45 485.177 1081.13 480.47 1087.83Z" fill="#58AE39"/>
</g>
<defs>
<clipPath id="clip0_1_302">
<rect width="1920" height="1080" fill="white"/>
</clipPath>
</defs>
</svg>
