<svg width="1920" height="1080" viewBox="0 0 1920 1080" fill="none" xmlns="http://www.w3.org/2000/svg">
<g clip-path="url(#clip0_1_464)">
<path fill-rule="evenodd" clip-rule="evenodd" d="M1620.88 -228.83C1615.9 -221.671 1607.72 -217.403 1599 -217.403L1127.8 -217.402C1122.55 -217.402 1117.64 -214.832 1114.65 -210.522L879.541 128.382C867.273 146.066 879.929 170.249 901.451 170.249L1336.75 170.249C1345.52 170.249 1353.74 174.57 1358.72 181.804L1743.4 741.13C1749.63 750.194 1749.66 762.156 1743.47 771.249L1358.71 1336.34C1353.74 1343.64 1345.49 1348 1336.67 1348L612.617 1348C591.284 1348 578.587 1324.19 590.472 1306.48L949.639 771.096C955.693 762.072 955.666 750.277 949.57 741.281L630.197 269.979C625.235 262.657 616.966 258.272 608.121 258.272L58.7842 258.272C37.2615 258.272 24.6057 234.089 36.8736 216.405L390.676 -293.595C395.659 -300.777 403.845 -305.061 412.587 -305.061L1044.43 -305.061C1049.66 -305.061 1054.57 -307.622 1057.56 -311.918L1294.37 -652C1299.36 -659.16 1307.53 -663.428 1316.26 -663.428L1872.45 -663.428C1893.99 -663.428 1906.64 -639.203 1894.33 -621.523L1620.88 -228.83Z" fill="#5A9599"/>
<path d="M1016.2 1539.88L747.667 1924.39C743.482 1930.32 736.653 1933.71 729.383 1933.71L192.318 1933.71C184.167 1933.71 176.677 1929.47 172.932 1922.48C169.187 1915.49 169.628 1907.22 174.034 1900.65L434.195 1528.01L189.674 1178.05C183.947 1169.78 174.254 1164.69 163.68 1164.69L-344.748 1164.69C-352.899 1164.69 -360.389 1160.45 -364.134 1153.46C-367.878 1146.46 -367.438 1138.2 -363.032 1131.63L-94.4993 747.327C-90.3138 741.392 -83.4848 738 -76.2153 738L460.85 738C469.001 738 476.491 742.24 480.236 749.234C483.981 756.229 483.54 764.496 479.134 771.067L266.335 1075.67C252.457 1095.59 267.216 1122.51 292.329 1122.51L729.383 1122.51C736.653 1122.51 743.482 1126.11 747.667 1131.84L1016.2 1516.14C1021.27 1523.34 1021.27 1532.67 1016.2 1539.88Z" fill="#5A9599"/>
</g>
<defs>
<clipPath id="clip0_1_464">
<rect width="1920" height="1080" fill="white"/>
</clipPath>
</defs>
</svg>
