<svg width="1920" height="1080" viewBox="0 0 1920 1080" fill="none" xmlns="http://www.w3.org/2000/svg">
<g clip-path="url(#clip0_2_267)">
<path fill-rule="evenodd" clip-rule="evenodd" d="M-238.215 783.344C-233.229 776.184 -225.056 771.916 -216.331 771.916H360.702C365.942 771.916 370.85 769.35 373.84 765.048L674.888 331.948C687.178 314.266 674.525 290.061 652.991 290.061H97.2854C88.504 290.061 80.2855 285.737 75.3106 278.501L-325.742 -304.869C-331.973 -313.931 -332.001 -325.889 -325.813 -334.98L75.32 -924.36C80.2857 -931.656 88.5396 -936.023 97.3653 -936.023H853.435C874.767 -936.023 887.464 -912.22 875.583 -894.504L500.268 -334.827C494.218 -325.805 494.245 -314.014 500.338 -305.02L831.143 183.349C836.104 190.673 844.375 195.061 853.221 195.061H1667.74C1689.28 195.061 1701.93 219.266 1689.64 236.948L1252.35 866.048C1247.37 873.218 1239.19 877.494 1230.46 877.494H458.697C453.462 877.494 448.558 880.055 445.567 884.351L154.76 1301.96C149.774 1309.12 141.602 1313.39 132.877 1313.39H-556.251C-577.795 1313.39 -590.446 1289.17 -578.135 1271.49L-238.215 783.344Z" fill="#7B5AD7"/>
<path d="M1526.8 1120.3L1818.83 1539.13C1823.38 1545.59 1830.81 1549.29 1838.71 1549.29L2422.77 1549.29C2431.64 1549.29 2439.78 1544.67 2443.85 1537.05C2447.93 1529.43 2447.45 1520.42 2442.66 1513.27L2159.73 1107.37L2425.65 726.177C2431.87 717.172 2442.42 711.631 2453.91 711.631L3006.83 711.631C3015.69 711.631 3023.84 707.013 3027.91 699.394C3031.98 691.775 3031.51 682.77 3026.71 675.613L2734.68 257.016C2730.13 250.551 2722.71 246.857 2714.8 246.857L2130.74 246.857C2121.88 246.857 2113.73 251.475 2109.66 259.094C2105.59 266.713 2106.07 275.718 2110.86 282.875L2342.28 614.659C2357.37 636.362 2341.32 665.685 2314.01 665.685L1838.71 665.685C1830.81 665.685 1823.38 669.61 1818.83 675.843L1526.8 1094.44C1521.29 1102.29 1521.29 1112.45 1526.8 1120.3Z" fill="#7B5AD7"/>
</g>
<defs>
<clipPath id="clip0_2_267">
<rect width="1920" height="1080" fill="white"/>
</clipPath>
</defs>
</svg>
