<svg width="1920" height="1080" viewBox="0 0 1920 1080" fill="none" xmlns="http://www.w3.org/2000/svg">
<g clip-path="url(#clip0_1_623)">
<path fill-rule="evenodd" clip-rule="evenodd" d="M1781.52 488.988C1776.54 481.834 1768.37 477.57 1759.65 477.57H1089.67C1084.43 477.57 1079.53 475.004 1076.54 470.702L759.536 14.6518C747.245 -3.02993 759.898 -27.235 781.432 -27.235H1398.28C1407.07 -27.235 1415.28 -31.5583 1420.26 -38.7946L1856.89 -673.911C1863.12 -682.973 1863.14 -694.931 1856.96 -704.022L1420.25 -1345.67C1415.28 -1352.97 1407.03 -1357.33 1398.2 -1357.33H572.555C551.224 -1357.33 538.527 -1333.53 550.407 -1315.81L960.773 -703.869C966.824 -694.847 966.796 -683.056 960.704 -674.062L592.036 -129.795C587.075 -122.471 578.804 -118.084 569.957 -118.084H-310.919C-332.453 -118.084 -345.107 -93.8786 -332.816 -76.1967L144.713 610.798C149.698 617.969 157.877 622.244 166.61 622.244H963.48C968.713 622.244 973.614 624.803 976.606 629.095L1314.32 1113.58C1319.3 1120.74 1327.47 1125 1336.19 1125H2173.76C2195.31 1125 2207.96 1100.76 2195.64 1083.08L1781.52 488.988Z" fill="#D12A34"/>
<path d="M480.47 1737.14L231.045 2094.78C227.157 2100.3 220.814 2103.45 214.062 2103.45L-284.79 2103.45C-292.36 2103.45 -299.317 2099.51 -302.796 2093C-306.274 2086.5 -305.865 2078.81 -301.773 2072.69L-60.1224 1726.1L-287.245 1400.6C-292.565 1392.91 -301.568 1388.18 -311.39 1388.18L-783.641 1388.18C-791.212 1388.18 -798.169 1384.24 -801.647 1377.73C-805.126 1371.22 -804.716 1363.53 -800.624 1357.42L-551.198 999.983C-547.311 994.463 -540.968 991.308 -534.215 991.308L-35.364 991.308C-27.7933 991.308 -20.8363 995.251 -17.3579 1001.76C-13.8794 1008.26 -14.2886 1015.95 -18.3809 1022.06L-216.039 1305.37C-228.93 1323.91 -215.221 1348.94 -191.894 1348.94L214.062 1348.94C220.814 1348.94 227.157 1352.3 231.045 1357.62L480.47 1715.06C485.177 1721.76 485.177 1730.44 480.47 1737.14Z" fill="#58AE39"/>
<path d="M-338.344 1322.75L-32.8882 884.906C-28.1272 878.148 -20.3592 874.286 -12.0901 874.286L598.822 874.286C608.094 874.286 616.613 879.113 620.873 887.078C625.133 895.044 624.632 904.457 619.62 911.94L330.072 1327.11C326.235 1332.61 326.237 1339.92 330.075 1345.42L601.829 1734.77C608.344 1744.19 619.37 1749.98 631.397 1749.98L1209.73 1749.98C1219.01 1749.98 1227.53 1754.81 1231.79 1762.77C1236.05 1770.74 1235.54 1780.15 1230.53 1787.63L925.076 2225.24C920.315 2232 912.547 2235.86 904.278 2235.86L293.366 2235.86C284.095 2235.86 275.575 2231.03 271.315 2223.06C267.055 2215.1 267.556 2205.69 272.568 2198.2L514.627 1851.35C530.414 1828.67 513.625 1798.01 485.059 1798.01L-12.0901 1798.01C-20.3592 1798.01 -28.1272 1793.91 -32.8882 1787.39L-338.344 1349.79C-344.108 1341.58 -344.108 1330.96 -338.344 1322.75Z" fill="#D12A34"/>
</g>
<defs>
<clipPath id="clip0_1_623">
<rect width="1920" height="1080" fill="white"/>
</clipPath>
</defs>
</svg>
